<svg width="119" height="80" viewBox="0 0 119 80" fill="none" xmlns="http://www.w3.org/2000/svg">
<path d="M55.3411 51.7315C56.9367 51.5 58.4985 51.054 60.0152 50.5346C58.5098 51.0484 56.9254 51.5 55.3411 51.7315Z" fill="#179BC6"/>
<path d="M54.7378 51.8049C54.89 51.788 55.0422 51.771 55.2001 51.7484C55.0479 51.771 54.8956 51.788 54.7378 51.8049Z" fill="#179BC6"/>
<path d="M71.5173 50.0152C71.3989 49.8853 71.2693 49.7668 71.1283 49.6482C67.8919 46.9665 63.3531 49.3942 60.0209 50.5346C58.4985 51.054 56.9367 51.5 55.3467 51.7315C55.3016 51.7372 55.2509 51.7484 55.2058 51.7541C55.0535 51.7767 54.9013 51.7936 54.7434 51.8105C54.6363 51.8218 54.5348 51.8331 54.4277 51.8444C54.3769 51.8444 54.3262 51.8557 54.2754 51.8614C52.7249 51.9856 51.2646 52.3977 49.8155 51.5847C49.5787 51.4492 49.3532 51.2968 49.1446 51.1331C49.0769 51.0992 49.0205 51.0484 48.9867 50.9919C48.4285 50.5233 47.9493 49.9587 47.532 49.3546C46.8329 48.344 46.2747 47.1641 46.348 45.9333C46.4608 43.9686 48.1241 42.4668 49.7986 41.4393C52.1216 40.0165 54.7096 39.0567 56.9987 37.5775C58.3125 36.7307 59.5472 35.6523 60.4381 34.3764C61.0132 29.8711 59.6431 19.0481 48.7274 16.2365C46.7201 15.7227 44.6565 15.5082 42.5872 15.4517C40.5067 15.3953 38.3811 15.4292 36.4133 16.1066C31.3445 17.8625 28.6099 23.4744 27.8939 28.7984C27.3808 32.6262 27.6176 36.5161 27.5161 40.3778C27.4766 41.8853 27.3864 43.3871 27.1778 44.8775C26.6647 48.536 25.4468 52.0477 24.8379 55.6892C24.2572 59.1557 23.8399 62.6843 23.6369 66.2129C23.4903 68.7987 23.7441 71.5256 25.1593 73.6992C26.0501 75.0655 27.3469 76.1213 28.6945 77.0359C29.4726 77.561 30.2845 78.0521 31.1528 78.4248C32.5342 79.0176 34.034 79.2829 35.5281 79.4466C37.7158 79.6838 39.9203 79.7007 42.1136 79.4974C44.1998 79.3055 46.3593 78.8482 48.2876 78.4812C50.1031 78.1368 51.1913 77.911 52.6967 77.2109C53.9822 76.6181 56.1417 75.8277 56.7394 74.3937C54.4333 73.8121 52.2456 72.8975 50.7853 71.0796C48.265 67.9349 49.2799 62.6166 52.7813 60.6292C58.0193 57.6596 65.693 61.956 70.2318 57.9927C72.3631 56.1296 73.6317 52.2848 71.523 50.0208L71.5173 50.0152Z" fill="#179BC6"/>
<path d="M100.994 48.5924C100.306 44.8662 99.6975 40.8464 99.5115 36.5218C99.4438 34.9522 99.4325 33.3432 99.4946 31.689C100.273 11.6804 88.3364 -0.2774 74.0489 0.00488921C69.6962 0.0895759 65.5859 2.56807 63.6237 6.46366C61.6616 10.3592 61.453 14.8815 61.5206 19.24C61.5714 22.5146 61.7293 25.7892 61.8026 29.075C61.8195 29.7864 61.8364 30.5034 61.7293 31.2091C61.5601 32.3608 61.0921 33.4166 60.4268 34.3651C59.536 35.641 58.3012 36.7194 56.9875 37.5662C54.6983 39.0454 52.1103 40.0052 49.7874 41.428C48.1128 42.4555 46.4551 43.9629 46.3367 45.922C46.2634 47.1471 46.8272 48.3271 47.5208 49.3433C47.938 49.9474 48.4172 50.512 48.9754 50.9806C49.0318 51.0258 49.0769 51.0766 49.1333 51.1218C49.3476 51.2911 49.5675 51.4436 49.8043 51.5734C51.2533 52.3921 52.7136 51.9743 54.2642 51.8501C54.3149 51.8501 54.3657 51.8388 54.4164 51.8331C54.5235 51.8218 54.625 51.8105 54.7321 51.7992C54.8844 51.7823 55.0366 51.7654 55.1945 51.7428C55.2396 51.7371 55.2903 51.7315 55.3354 51.7202C56.9198 51.4887 58.5042 51.0371 60.0096 50.5233C63.3475 49.3829 67.8806 46.9552 71.117 49.6369C71.258 49.7555 71.3877 49.8797 71.5061 50.0039C73.6204 52.2678 72.3518 56.1126 70.2149 57.9757C65.6761 61.9391 58.0024 57.6426 52.7644 60.6123C49.263 62.5996 48.2425 67.9179 50.7684 71.0626C52.2287 72.8806 54.4164 73.7952 56.7225 74.3767C57.6866 74.6195 58.6733 74.8058 59.6375 74.9752C63.9789 75.7317 69.4368 76.5503 72.6957 77.0472C75.949 77.544 90.3154 84.5504 99.5228 75.0486C105.871 68.4938 103.075 59.8671 100.983 48.5755L100.994 48.5924Z" fill="#F37C0E"/>
<path d="M117.052 32.6036C115.699 30.4864 114.16 28.1434 112.124 27.178C110.726 26.5175 108.29 25.9247 106.903 27.0877C105.516 28.2507 104.862 29.8372 106.249 31.8471C107.636 33.857 110.258 31.5591 110.67 31.7511C110.173 34.6079 109.756 39.706 108.888 40.1407C108.381 40.3948 104.073 38.0123 99.5115 36.5161C99.6919 40.8408 100.301 44.8606 100.994 48.5868C102.613 48.9594 104.451 49.2643 106.779 49.5466C113.624 50.3878 113.139 48.3045 116.218 46.464C120.345 43.9911 119.229 36.008 117.052 32.6036Z" fill="#179BC6"/>
<path d="M27.1665 44.8719C27.3751 43.3814 27.4653 41.8796 27.5048 40.3722C26.9353 41.061 26.4279 41.8006 25.9712 42.5628C24.0655 41.411 23.558 41.4054 21.3534 41.1005C19.1489 40.79 15.0104 41.8458 13.9504 43.7992C14.6044 40.2367 14.1082 36.9113 13.4937 33.3432C14.0067 33.1061 18.8782 35.929 21.2407 32.135C23.6539 28.2507 24.8153 24.5301 22.0413 22.8872C18.1396 20.5725 15.5234 21.1427 13.7812 21.967C11.2383 23.1752 6.4627 30.0687 4.77121 32.7109C2.05355 36.9678 -2.90815 51.054 2.24525 54.1423C6.09621 56.4457 11.7119 58.083 16.1888 58.3935C19.4251 58.6194 22.0751 58.7887 24.4771 58.7662C24.5109 58.1621 24.5616 57.5636 24.6406 56.9595C25.1424 52.872 26.5914 48.9538 27.1665 44.8719Z" fill="#F37C0E"/>
<path d="M70.7449 15.926C70.5814 15.7623 70.3502 15.655 70.1247 15.6832C70.0683 15.6889 70.0063 15.7058 69.9612 15.7453C69.8653 15.8244 69.8766 15.9655 69.871 16.0897C69.8259 16.9535 70.119 18.4553 70.4404 18.6303C70.7618 18.8053 71.0212 18.6529 71.1678 18.4553C71.4553 18.0657 71.3764 17.2245 71.0945 16.5131C71.0099 16.2986 70.9028 16.0897 70.7393 15.926H70.7449Z" fill="#3A3937"/>
<path d="M74.4718 15.926C74.3083 15.7623 74.0771 15.655 73.8516 15.6832C73.7952 15.6889 73.7332 15.7058 73.6881 15.7453C73.5922 15.8244 73.6035 15.9655 73.5979 16.0897C73.5528 16.9535 73.846 18.4553 74.1673 18.6303C74.4887 18.8053 74.7481 18.6529 74.8947 18.4553C75.1822 18.0657 75.1033 17.2245 74.8214 16.5131C74.7368 16.2986 74.6297 16.0897 74.4662 15.926H74.4718Z" fill="#3A3937"/>
<path d="M45.4233 25.8569C45.6206 26.286 45.9589 26.6586 46.4551 26.6925C46.8272 26.7151 47.1825 26.54 47.4869 26.3424C47.9605 26.0319 47.5208 25.2697 47.0415 25.5803C46.9005 25.6762 46.7088 25.8004 46.5622 25.8117C46.3705 25.8287 46.2691 25.5972 46.1845 25.4109C46.083 25.1907 45.7729 25.1455 45.5812 25.2528C45.3556 25.3827 45.3275 25.6424 45.4233 25.8569Z" fill="#3A3937"/>
<path d="M48.3665 26.8901C48.5638 27.3192 48.9021 27.6918 49.3983 27.7257C49.7704 27.7482 50.1257 27.5732 50.4301 27.3756C50.9037 27.0651 50.4639 26.3029 49.9847 26.6134C49.8437 26.7094 49.652 26.8336 49.5054 26.8449C49.3137 26.8619 49.2122 26.6304 49.1277 26.4441C49.0262 26.2239 48.7161 26.1787 48.5244 26.286C48.2988 26.4158 48.2706 26.6755 48.3665 26.8901Z" fill="#3A3937"/>
</svg>